<?xml version="1.0" encoding="iso-8859-1"?>
<!-- Generator: Adobe Illustrator 19.0.0, SVG Export Plug-In . SVG Version: 6.00 Build 0)  -->
<svg version="1.1" id="Layer_1" xmlns="http://www.w3.org/2000/svg" xmlns:xlink="http://www.w3.org/1999/xlink" x="0px" y="0px"
	 viewBox="0 0 512 512" style="enable-background:new 0 0 512 512;" xml:space="preserve">
<g transform="translate(1 1)">
	<g>
		<g>
			<path d="M502.467,378.733h-8.533v-281.6c0-14.507-11.093-25.6-25.6-25.6H41.667c-14.507,0-25.6,11.093-25.6,25.6v281.6H7.533
				c-5.12,0-8.533,3.413-8.533,8.533v25.6c0,14.507,11.093,25.6,25.6,25.6h460.8c14.507,0,25.6-11.093,25.6-25.6v-25.6
				C511,382.147,507.587,378.733,502.467,378.733z M33.133,97.133c0-5.12,3.413-8.533,8.533-8.533h426.667
				c5.12,0,8.533,3.413,8.533,8.533v281.6h-153.6c-5.12,0-8.533,3.413-8.533,8.533v8.533H195.267v-8.533
				c0-5.12-3.413-8.533-8.533-8.533h-153.6V97.133z M493.933,412.867c0,5.12-3.413,8.533-8.533,8.533H24.6
				c-5.12,0-8.533-3.413-8.533-8.533V395.8H24.6h153.6v8.533c0,5.12,3.413,8.533,8.533,8.533h136.533
				c5.12,0,8.533-3.413,8.533-8.533V395.8h153.6h8.533V412.867z"/>
			<path d="M67.267,122.733H203.8c5.12,0,8.533-3.413,8.533-8.533s-3.413-8.533-8.533-8.533H67.267c-5.12,0-8.533,3.413-8.533,8.533
				S62.147,122.733,67.267,122.733z"/>
			<path d="M101.4,148.333c0,5.12,3.413,8.533,8.533,8.533h110.933c5.12,0,8.533-3.413,8.533-8.533s-3.413-8.533-8.533-8.533
				H109.933C104.813,139.8,101.4,143.213,101.4,148.333z"/>
			<path d="M67.267,156.867H75.8c5.12,0,8.533-3.413,8.533-8.533S80.92,139.8,75.8,139.8h-8.533c-5.12,0-8.533,3.413-8.533,8.533
				S62.147,156.867,67.267,156.867z"/>
			<path d="M67.267,191h76.8c5.12,0,8.533-3.413,8.533-8.533s-3.413-8.533-8.533-8.533h-76.8c-5.12,0-8.533,3.413-8.533,8.533
				S62.147,191,67.267,191z"/>
			<path d="M229.4,250.733c0-5.12-3.413-8.533-8.533-8.533H109.933c-5.12,0-8.533,3.413-8.533,8.533s3.413,8.533,8.533,8.533
				h110.933C225.987,259.267,229.4,255.853,229.4,250.733z"/>
			<path d="M67.267,259.267H75.8c5.12,0,8.533-3.413,8.533-8.533S80.92,242.2,75.8,242.2h-8.533c-5.12,0-8.533,3.413-8.533,8.533
				S62.147,259.267,67.267,259.267z"/>
			<path d="M212.333,276.333H178.2c-5.12,0-8.533,3.413-8.533,8.533c0,5.12,3.413,8.533,8.533,8.533h34.133
				c5.12,0,8.533-3.413,8.533-8.533C220.867,279.747,217.453,276.333,212.333,276.333z"/>
			<path d="M212.333,310.467h-17.067c-5.12,0-8.533,3.413-8.533,8.533s3.413,8.533,8.533,8.533h17.067
				c5.12,0,8.533-3.413,8.533-8.533S217.453,310.467,212.333,310.467z"/>
			<path d="M212.333,173.933H178.2c-5.12,0-8.533,3.413-8.533,8.533S173.08,191,178.2,191h34.133c5.12,0,8.533-3.413,8.533-8.533
				S217.453,173.933,212.333,173.933z"/>
			<path d="M67.267,293.4h76.8c5.12,0,8.533-3.413,8.533-8.533c0-5.12-3.413-8.533-8.533-8.533h-76.8
				c-5.12,0-8.533,3.413-8.533,8.533C58.733,289.987,62.147,293.4,67.267,293.4z"/>
			<path d="M67.267,327.533h93.867c5.12,0,8.533-3.413,8.533-8.533s-3.413-8.533-8.533-8.533H67.267
				c-5.12,0-8.533,3.413-8.533,8.533S62.147,327.533,67.267,327.533z"/>
			<path d="M212.333,208.067h-17.067c-5.12,0-8.533,3.413-8.533,8.533c0,5.12,3.413,8.533,8.533,8.533h17.067
				c5.12,0,8.533-3.413,8.533-8.533C220.867,211.48,217.453,208.067,212.333,208.067z"/>
			<path d="M67.267,225.133h93.867c5.12,0,8.533-3.413,8.533-8.533c0-5.12-3.413-8.533-8.533-8.533H67.267
				c-5.12,0-8.533,3.413-8.533,8.533C58.733,221.72,62.147,225.133,67.267,225.133z"/>
			<path d="M229.4,353.133c0-5.12-3.413-8.533-8.533-8.533H109.933c-5.12,0-8.533,3.413-8.533,8.533s3.413,8.533,8.533,8.533
				h110.933C225.987,361.667,229.4,358.253,229.4,353.133z"/>
			<path d="M75.8,344.6h-8.533c-5.12,0-8.533,3.413-8.533,8.533s3.413,8.533,8.533,8.533H75.8c5.12,0,8.533-3.413,8.533-8.533
				S80.92,344.6,75.8,344.6z"/>
			<path d="M365.933,361.667h0.853h24.747H408.6h42.667h0.853V260.12c0-10.24-8.533-17.92-17.92-17.92h-24.747
				c-10.24,0-17.92,8.533-17.92,17.92v16.213h-24.747V208.92c0-10.24-8.533-17.92-17.92-17.92H324.12
				c-10.24,0-17.92,8.533-17.92,17.92v152.747h42.667H365.933z M434.2,260.12v84.48h-25.6l0.853-85.333L434.2,260.12z
				 M391.533,293.4v51.2h-24.747v-51.2H391.533z M323.267,344.6l0.853-136.533l24.747,0.853v67.413V344.6H323.267z"/>
			<path d="M400.067,122.733h42.667c5.12,0,8.533-3.413,8.533-8.533s-3.413-8.533-8.533-8.533h-42.667
				c-5.12,0-8.533,3.413-8.533,8.533S394.947,122.733,400.067,122.733z"/>
			<path d="M357.4,122.733h8.533c5.12,0,8.533-3.413,8.533-8.533s-3.413-8.533-8.533-8.533H357.4c-5.12,0-8.533,3.413-8.533,8.533
				S352.28,122.733,357.4,122.733z"/>
			<path d="M357.4,156.867h34.133c5.12,0,8.533-3.413,8.533-8.533s-3.413-8.533-8.533-8.533H357.4c-5.12,0-8.533,3.413-8.533,8.533
				S352.28,156.867,357.4,156.867z"/>
			<path d="M442.733,139.8h-17.067c-5.12,0-8.533,3.413-8.533,8.533s3.413,8.533,8.533,8.533h17.067c5.12,0,8.533-3.413,8.533-8.533
				S447.853,139.8,442.733,139.8z"/>
		</g>
	</g>
</g>
<g>
</g>
<g>
</g>
<g>
</g>
<g>
</g>
<g>
</g>
<g>
</g>
<g>
</g>
<g>
</g>
<g>
</g>
<g>
</g>
<g>
</g>
<g>
</g>
<g>
</g>
<g>
</g>
<g>
</g>
</svg>
