<?xml version="1.0" encoding="iso-8859-1"?>
<!-- Generator: Adobe Illustrator 19.0.0, SVG Export Plug-In . SVG Version: 6.00 Build 0)  -->
<svg version="1.1" id="Layer_1" xmlns="http://www.w3.org/2000/svg" xmlns:xlink="http://www.w3.org/1999/xlink" x="0px" y="0px"
	 viewBox="0 0 485 485" style="enable-background:new 0 0 485 485;" xml:space="preserve">
<g>
	<path d="M327.5,256.709V85c0-46.869-38.131-85-85-85s-85,38.131-85,85v171.709c-28.692,24.77-45,60.183-45,98.291
		c0,71.682,58.318,130,130,130s130-58.318,130-130C372.5,316.893,356.192,281.479,327.5,256.709z M242.5,455
		c-55.14,0-100-44.86-100-100c0-31.241,14.269-60.14,39.148-79.287l5.852-4.503V85c0-30.327,24.673-55,55-55s55,24.673,55,55v186.21
		l5.852,4.503C328.231,294.86,342.5,323.759,342.5,355C342.5,410.14,297.64,455,242.5,455z"/>
	<path d="M257.5,296.899V250h-30v46.899c-25.849,6.677-45,30.195-45,58.101c0,33.084,26.916,60,60,60s60-26.916,60-60
		C302.5,327.094,283.349,303.576,257.5,296.899z"/>
</g>
<g>
</g>
<g>
</g>
<g>
</g>
<g>
</g>
<g>
</g>
<g>
</g>
<g>
</g>
<g>
</g>
<g>
</g>
<g>
</g>
<g>
</g>
<g>
</g>
<g>
</g>
<g>
</g>
<g>
</g>
</svg>
