<svg xmlns="http://www.w3.org/2000/svg" width="27.95" height="37.269" viewBox="0 0 27.95 37.269">
  <g id="user" transform="translate(-6 -1.999)">
    <path id="Caminho_1" data-name="Caminho 1" d="M18.782,4.664a6.827,6.827,0,0,1,6.987,6.654,6.827,6.827,0,0,1-6.987,6.654,6.827,6.827,0,0,1-6.987-6.654,6.827,6.827,0,0,1,6.987-6.654m0-2.662A9.55,9.55,0,0,0,9,11.318a9.55,9.55,0,0,0,9.782,9.317,9.55,9.55,0,0,0,9.782-9.317A9.55,9.55,0,0,0,18.782,2Z" transform="translate(1.192 0)" fill="#3a4750"/>
    <path id="Caminho_2" data-name="Caminho 2" d="M33.95,33.973H31.155V27.318a6.827,6.827,0,0,0-6.987-6.654H15.782a6.827,6.827,0,0,0-6.987,6.654v6.654H6V27.318A9.55,9.55,0,0,1,15.782,18h8.385a9.55,9.55,0,0,1,9.782,9.317Z" transform="translate(0 5.295)" fill="#3a4750"/>
  </g>
</svg>
